# xmcd
#
# Track frame offsets: 
#        150
#        20847
#        46302
#        71907
#        81178
#        100623
#        124962
#        144392
#        161604
#        177916
#        202021
#        222350
#        241733
#
# Disc length: 3304 seconds
#
# Revision: 1
# Processed by: cddbd v1.5.2PL0 Copyright (c) Steve Scherf et al.
# Submitted via: ExactAudioCopy v0.99pb5
#
DISCID=bb0ce60d
DTITLE=Rick Gallagher - A Sleigh, a Song and a Baby Boy
DYEAR=2002
DGENRE=Jazz
TTITLE0=Sleigh Ride
TTITLE1=The Little Drummer Boy
TTITLE2=Hark! The Herald Angels Sing
TTITLE3=The Holly and the Ivy
TTITLE4=O Come All Ye Faithful
TTITLE5=God Rest Ye Merry Gentlemen
TTITLE6=O Holy Night
TTITLE7=O Come, O Come Emmanuel
TTITLE8=Let it Snow
TTITLE9=Have Yourself a Merry Little Christmas
TTITLE10=A Child is Born
TTITLE11=Sing We Now of Christmas
TTITLE12=Silent Night
EXTD=YEAR: 2002
EXTT0=
EXTT1=
EXTT2=
EXTT3=
EXTT4=
EXTT5=
EXTT6=
EXTT7=
EXTT8=
EXTT9=
EXTT10=
EXTT11=
EXTT12=
PLAYORDER=
